{"title":"Tabula Rasa (2017) - Season 1 Complete - 1080p x265 HEVC (ENG SU","magnet":"magnet:?xt=urn:btih:bcd59496fa5d4e207c93109d1cb2339947bca8a2&dn=Tabula+Rasa+%282017%29+-+Season+1+Complete+-+1080p+x265+HEVC+%28ENG+SU&tr=udp%3A%2F%2Ftracker.leechers-paradise.org%3A6969&tr=udp%3A%2F%2Fzer0day.ch%3A1337&tr=udp%3A%2F%2Fopen.demonii.com%3A1337&tr=udp%3A%2F%2Ftracker.coppersurfer.tk%3A6969&tr=udp%3A%2F%2Fexodus.desync.com%3A6969","uploader":"BRSHNKV","categoryP":"video","categoryS":"hd___tv_shows","size":"4506607475","seeders":"23","leechers":"32","description":" <a href=\"http://www.imdb.com/title/tt5197860/?ref_=nv_sr_1\" rel=\"nofollow\" target=\"_NEW\">http://www.imdb.com/title/tt5197860/?ref_=nv_sr_1</a>\r\n\r\n\r\nSame settings for all eps: \r\n\r\nFormat : MPEG-4 \r\nFormat profile : Base Media / Version 2 \r\nCodec ID : mp42 \r\nOverall bit rate mode : Variable \r\nOverall bit rate : 1 265 Kbps \r\nEncoded date : UTC 2018-04-03 01:08:18 \r\nTagged date : UTC 2018-04-03 01:08:18 \r\nWriting application : HandBrake 20160211184813-ffd8cb1-master 2016021301 \r\n\r\nVideo \r\nID : 1 \r\nFormat : HEVC \r\nFormat/Info : High Efficiency Video Coding \r\nFormat profile : Main <a href=\"/cdn-cgi/l/email-protection\" class=\"__cf_email__\" data-cfemail=\"744544343840\">[email&#xA0;protected]</a>@Main \r\nCodec ID : hev1 \r\nCodec ID/Info : High Efficiency Video Coding \r\nBit rate : 1 101 Kbps \r\nWidth : 1 920 pixels \r\nHeight : 1 080 pixels \r\nDisplay aspect ratio : 16:9 \r\nFrame rate mode : Constant \r\nFrame rate : 25.000 fps \r\nColor space : YUV \r\nChroma subsampling : 4:2:0 \r\nBit depth : 10 bits \r\nBits/(Pixel*Frame) : 0.021 \r\nStream size : 432 MiB (87%) \r\nWriting library : x265 1.9:[Mac OS X][clang 7.0.2][64 bit] 10bit \r\nEncoded date : UTC 2018-04-03 01:08:18 \r\nTagged date : UTC 2018-04-03 01:08:18 \r\nColor range : Limited \r\nColor primaries : BT.709 \r\nTransfer characteristics : BT.709 \r\nMatrix coefficients : BT.709 \r\n\r\nAudio \r\nID : 2 \r\nFormat : AAC \r\nFormat/Info : Advanced Audio Codec \r\nFormat profile : LC \r\nCodec ID : 40 \r\nBit rate mode : Variable \r\nBit rate : 158 Kbps \r\nChannel(s) : 2 channels \r\nChannel positions : Front: L R \r\nSampling rate : 48.0 KHz \r\nCompression mode : Lossy \r\nStream size : 62.1 MiB (13%) \r\nTitle : Stereo / Stereo \r\nLanguage : Dutch \r\nEncoded date : UTC 2018-04-03 01:08:18 \r\nTagged date : UTC 2018-04-03 01:08:18","last_updated":"2018-04-07T13:52:16.287Z","parsed":{"xt":"urn:btih:bcd59496fa5d4e207c93109d1cb2339947bca8a2","dn":"Tabula Rasa (2017) - Season 1 Complete - 1080p x265 HEVC (ENG SU","tr":["udp://exodus.desync.com:6969","udp://open.demonii.com:1337","udp://tracker.coppersurfer.tk:6969","udp://tracker.leechers-paradise.org:6969","udp://zer0day.ch:1337"],"infoHash":"bcd59496fa5d4e207c93109d1cb2339947bca8a2","infoHashBuffer":{"type":"Buffer","data":[188,213,148,150,250,93,78,32,124,147,16,157,28,178,51,153,71,188,168,162]},"name":"Tabula Rasa (2017) - Season 1 Complete - 1080p x265 HEVC (ENG SU","announce":["udp://exodus.desync.com:6969","udp://open.demonii.com:1337","udp://tracker.coppersurfer.tk:6969","udp://tracker.leechers-paradise.org:6969","udp://zer0day.ch:1337"],"urlList":[]}}